<?xml version="1.0" encoding="UTF-8" standalone="no"?><!DOCTYPE svg PUBLIC "-//W3C//DTD SVG 1.1//EN" "http://www.w3.org/Graphics/SVG/1.1/DTD/svg11.dtd"><svg width="100%" height="100%" viewBox="0 0 282 56" version="1.1" xmlns="http://www.w3.org/2000/svg" xmlns:xlink="http://www.w3.org/1999/xlink" xml:space="preserve" xmlns:serif="http://www.serif.com/" style="fill-rule:evenodd;clip-rule:evenodd;stroke-linejoin:round;stroke-miterlimit:2;"><g><path d="M180.278,43.422l0,-4.777l12.89,-14.241l-9.103,0c-0.843,0 -1.564,-0.286 -2.164,-0.857c-0.601,-0.57 -0.901,-1.277 -0.901,-2.118l0,-1.982l19.65,0l0,5.137l-12.71,13.61l13.16,0l0,5.228l-20.822,0Z" style="fill:#f26821;fill-rule:nonzero;"/><path d="M204.203,19.446l3.245,0c0.84,0 1.562,0.3 2.162,0.901c0.601,0.602 0.901,1.322 0.901,2.164l0,20.911l-6.308,0l0,-23.976Zm0,-7.03l3.245,0c0.84,0 1.562,0.3 2.162,0.901c0.601,0.601 0.901,1.321 0.901,2.163l0,1.893l-6.308,0l0,-4.957Z" style="fill:#f26821;fill-rule:nonzero;"/><path d="M227.404,26.206c-0.901,-1.262 -2.133,-1.893 -3.695,-1.893c-1.683,0 -2.975,0.601 -3.876,1.803c-0.901,1.201 -1.352,2.855 -1.352,4.958l0,12.348l-6.13,0l0,-31.006l3.064,0c0.841,0 1.563,0.3 2.164,0.901c0.6,0.6 0.902,1.322 0.902,2.163l0,7.121c1.081,-1.803 2.614,-2.944 4.597,-3.426c1.983,-0.48 3.875,-0.36 5.679,0.36c1.681,0.722 3.094,1.864 4.236,3.426c1.14,1.562 1.713,3.726 1.713,6.491l0,13.97l-6.04,0l0,-12.438c0,-0.902 -0.077,-1.728 -0.226,-2.48c-0.151,-0.75 -0.495,-1.517 -1.036,-2.298" style="fill:#f26821;fill-rule:nonzero;"/><path d="M258.268,19.446l0,14.061c0,4.267 -1.112,7.061 -3.335,8.383c-2.222,1.323 -4.657,1.983 -7.3,1.983c-2.585,-0.122 -4.944,-0.842 -7.077,-2.163c-2.133,-1.322 -3.199,-4.056 -3.199,-8.203l0,-14.061l6.31,0l0,15.324c0,1.442 0.419,2.493 1.262,3.154c0.841,0.661 1.803,0.992 2.884,0.992c1.081,0 2.058,-0.331 2.928,-0.992c0.871,-0.661 1.308,-1.712 1.308,-3.154l0,-12.259c0,-0.842 0.284,-1.562 0.856,-2.164c0.571,-0.601 1.307,-0.901 2.209,-0.901l3.154,0Z" style="fill:#f26821;fill-rule:nonzero;"/><path d="M274.71,31.344c-0.842,0.42 -2.014,0.811 -3.515,1.172l-2.074,0.451c-1.082,0.299 -1.862,0.69 -2.343,1.172c-0.421,0.661 -0.631,1.321 -0.631,1.982c0,0.901 0.271,1.623 0.81,2.164c0.542,0.481 1.323,0.72 2.344,0.72c1.682,0 3.005,-0.481 3.966,-1.442c0.961,-0.96 1.443,-2.283 1.443,-3.965l0,-2.254Zm1.442,11.087c-1.262,0.661 -2.6,1.066 -4.011,1.217c-1.413,0.148 -2.659,0.225 -3.741,0.225c-2.163,0 -4.056,-0.586 -5.679,-1.758c-1.621,-1.172 -2.434,-3.11 -2.434,-5.814c0,-2.524 0.736,-4.326 2.21,-5.408c1.472,-1.081 3.349,-1.803 5.633,-2.163c0.3,0 0.661,-0.045 1.081,-0.135c0.42,-0.091 0.902,-0.165 1.443,-0.227c2.644,-0.359 3.966,-1.14 3.966,-2.342c0,-0.902 -0.466,-1.487 -1.398,-1.758c-0.932,-0.27 -1.788,-0.405 -2.568,-0.405c-0.843,0 -1.592,0.12 -2.254,0.36c-0.662,0.241 -1.141,0.691 -1.443,1.352l-6.038,0c0.24,-1.862 1.081,-3.395 2.524,-4.597c1.622,-1.382 3.934,-2.073 6.94,-2.073c3.365,0 5.889,0.571 7.572,1.713c1.742,1.202 2.615,2.884 2.615,5.048l0,8.202c0,2.404 -0.439,4.281 -1.309,5.634c-0.87,1.352 -1.907,2.328 -3.109,2.929" style="fill:#f26821;fill-rule:nonzero;"/><path d="M144.09,54.633l-63.376,0l9.369,-8.083l54.007,0l0,8.083Z" style="fill:#f26821;fill-rule:nonzero;"/><path d="M48.798,54.633l31.963,0l-8.817,-8.083l-23.146,0l0,8.083Z" style="fill:#f26821;fill-rule:nonzero;"/><rect x="0" y="46.55" width="37.475" height="8.082" style="fill:#f26821;"/><rect x="155.939" y="46.55" width="125.067" height="8.082" style="fill:#f26821;"/><path d="M6.336,29.149c0.059,-1.547 0.505,-2.737 1.34,-3.569c0.832,-0.834 1.902,-1.251 3.212,-1.251c1.427,0 2.529,0.417 3.302,1.251c0.713,0.773 1.129,1.962 1.25,3.569l-9.104,0Zm4.374,-9.996c-3.392,0 -6.039,1.102 -7.943,3.303c-1.844,2.141 -2.767,5.116 -2.767,8.924c0,3.986 0.951,7.05 2.856,9.192c1.904,2.2 4.552,3.301 7.942,3.301c2.796,0 5.116,-0.683 6.961,-2.052c1.843,-1.31 3.092,-3.212 3.748,-5.711l-4.461,0c-0.714,0 -1.265,0.148 -1.652,0.446c-0.387,0.296 -0.611,0.535 -0.669,0.714c-0.178,0.177 -0.343,0.341 -0.49,0.49c-0.15,0.149 -0.313,0.253 -0.492,0.313c-0.714,0.417 -1.576,0.624 -2.588,0.624c-1.547,0 -2.708,-0.475 -3.479,-1.427c-0.835,-0.893 -1.281,-2.261 -1.34,-4.106l15.438,0c0.059,-0.119 0.09,-0.328 0.09,-0.624l0,-0.982c0,-3.926 -0.952,-6.99 -2.855,-9.192c-1.963,-2.141 -4.73,-3.213 -8.299,-3.213" style="fill:#f26821;fill-rule:nonzero;"/><path d="M38.766,36.734c-0.891,1.249 -2.172,1.875 -3.837,1.875c-1.548,0 -2.767,-0.626 -3.659,-1.875c-0.892,-1.249 -1.338,-2.945 -1.338,-5.086c0,-2.321 0.446,-4.106 1.338,-5.355c0.892,-1.249 2.171,-1.874 3.837,-1.874c1.607,0 2.856,0.625 3.748,1.874c0.834,1.249 1.25,3.034 1.25,5.355c0,2.261 -0.447,3.956 -1.339,5.086m3.749,-15.305c-2.441,-1.517 -5.087,-2.275 -7.942,-2.275c-1.549,0 -3.067,0.283 -4.553,0.848c-1.486,0.565 -2.677,1.383 -3.569,2.454c-1.726,2.26 -2.588,5.235 -2.588,8.924c0,3.868 0.862,6.9 2.588,9.103c1.725,2.26 4.015,3.39 6.872,3.39c1.427,0 2.735,-0.268 3.927,-0.803c1.129,-0.595 2.081,-1.517 2.855,-2.766l0,12.502c0,0.831 0.297,1.546 0.892,2.141c0.594,0.591 1.308,0.893 2.141,0.893l3.035,0l0,-25.888c0,-4.164 -1.22,-7.005 -3.658,-8.523" style="fill:#f26821;fill-rule:nonzero;"/><path d="M64.192,20.581c-0.566,0.596 -0.848,1.31 -0.848,2.143l0,12.136c0,1.429 -0.433,2.469 -1.294,3.123c-0.863,0.655 -1.83,0.982 -2.901,0.982c-1.069,0 -2.022,-0.327 -2.854,-0.982c-0.834,-0.654 -1.25,-1.694 -1.25,-3.123l0,-15.17l-6.247,0l0,13.921c0,4.104 1.056,6.812 3.168,8.122c2.11,1.307 4.447,2.019 7.005,2.14c2.618,0 5.028,-0.654 7.228,-1.963c2.202,-1.309 3.303,-4.075 3.303,-8.299l0,-13.921l-3.124,0c-0.892,0 -1.621,0.297 -2.186,0.891" style="fill:#f26821;fill-rule:nonzero;"/><path d="M75.784,19.69l-3.211,0l0,23.736l6.245,5.511l0,-26.213c0,-0.833 -0.299,-1.547 -0.892,-2.143c-0.596,-0.594 -1.31,-0.891 -2.142,-0.891" style="fill:#f26821;fill-rule:nonzero;"/><path d="M75.784,12.729l-3.211,0l0,4.907l6.245,0l0,-1.873c0,-0.833 -0.299,-1.546 -0.892,-2.141c-0.596,-0.595 -1.31,-0.893 -2.142,-0.893" style="fill:#f26821;fill-rule:nonzero;"/><path d="M94.822,19.69c-1.607,0 -3.169,0.208 -4.687,0.624c-1.516,0.416 -2.841,1.071 -3.971,1.963c-1.19,0.952 -2.126,2.217 -2.81,3.793c-0.685,1.576 -1.026,3.525 -1.026,5.845l0,17.022l6.247,-5.511l0,-12.226c0,-1.785 0.415,-3.093 1.25,-3.926c0.832,-0.832 2.11,-1.249 3.837,-1.249l2.052,0l0,-6.335l-0.892,0Z" style="fill:#f26821;fill-rule:nonzero;"/><path d="M103.693,29.148c0.058,-1.546 0.504,-2.736 1.337,-3.569c0.833,-0.833 1.903,-1.25 3.213,-1.25c1.427,0 2.527,0.417 3.302,1.25c0.715,0.773 1.129,1.962 1.25,3.569l-9.102,0Zm4.372,-9.994c-3.392,0 -6.039,1.1 -7.942,3.302c-1.845,2.141 -2.768,5.116 -2.768,8.923c0,3.986 0.951,7.05 2.857,9.192c1.904,2.201 4.551,3.302 7.943,3.302c2.795,0 5.114,-0.684 6.96,-2.053c1.842,-1.309 3.092,-3.211 3.746,-5.711l-4.461,0c-0.713,0 -1.264,0.148 -1.65,0.446c-0.388,0.297 -0.612,0.535 -0.67,0.714c-0.178,0.179 -0.343,0.342 -0.49,0.491c-0.149,0.148 -0.313,0.253 -0.49,0.312c-0.715,0.416 -1.578,0.624 -2.591,0.624c-1.546,0 -2.706,-0.475 -3.479,-1.427c-0.833,-0.893 -1.279,-2.261 -1.337,-4.105l15.437,0c0.058,-0.12 0.089,-0.327 0.089,-0.624l0,-0.982c0,-3.926 -0.952,-6.99 -2.855,-9.191c-1.964,-2.143 -4.728,-3.213 -8.299,-3.213" style="fill:#f26821;fill-rule:nonzero;"/><path d="M139.156,21.206c-2.202,-1.368 -4.61,-2.052 -7.229,-2.052c-2.557,0.118 -4.894,0.863 -7.005,2.23c-2.113,1.369 -3.166,4.076 -3.166,8.122l0,13.92l6.245,0l0,-15.171c0,-1.426 0.415,-2.468 1.25,-3.122c0.832,-0.655 1.785,-0.982 2.853,-0.982c1.073,0 2.041,0.327 2.903,0.982c0.859,0.654 1.294,1.696 1.294,3.122l0,12.137c0,0.893 0.28,1.621 0.846,2.187c0.566,0.565 1.295,0.847 2.188,0.847l3.122,0l0,-13.92c0,-4.166 -1.102,-6.931 -3.301,-8.3" style="fill:#f26821;fill-rule:nonzero;"/><path d="M171.355,33.7c0,1.665 -0.478,2.975 -1.428,3.926c-0.952,0.951 -2.263,1.427 -3.926,1.427c-1.013,0 -1.786,-0.236 -2.321,-0.713c-0.536,-0.536 -0.803,-1.25 -0.803,-2.142c0,-0.654 0.209,-1.308 0.624,-1.963c0.478,-0.476 1.251,-0.862 2.32,-1.16l2.054,-0.446c1.486,-0.358 2.645,-0.745 3.48,-1.16l0,2.231Zm3.213,-12.851c-1.668,-1.131 -4.167,-1.695 -7.496,-1.695c-2.976,0 -5.265,0.684 -6.872,2.052c-1.429,1.19 -2.263,2.708 -2.499,4.551l5.979,0c0.299,-0.654 0.772,-1.1 1.429,-1.339c0.654,-0.237 1.395,-0.356 2.23,-0.356c0.771,0 1.62,0.133 2.542,0.401c0.924,0.268 1.385,0.848 1.385,1.741c0,1.189 -1.31,1.964 -3.927,2.319c-0.535,0.06 -1.013,0.134 -1.427,0.224c-0.418,0.088 -0.775,0.133 -1.073,0.133c-2.261,0.357 -4.12,1.072 -5.575,2.142c-1.46,1.071 -2.186,2.856 -2.186,5.354c0,2.677 0.802,4.597 2.407,5.757c1.608,1.159 3.481,1.74 5.624,1.74c1.07,0 2.304,-0.078 3.703,-0.224c1.397,-0.149 2.721,-0.549 3.97,-1.204c1.189,-0.595 2.216,-1.561 3.078,-2.9c0.863,-1.339 1.296,-3.197 1.296,-5.578l0,-8.12c0,-2.142 -0.863,-3.808 -2.588,-4.998" style="fill:#f26821;fill-rule:nonzero;"/><path d="M152.43,38.212l-1.311,0l0.51,-2.111c0,0 1.092,1.304 0.801,2.111m-4.831,0c-0.291,-0.807 0.802,-2.111 0.802,-2.111l0.51,2.111l-1.312,0Zm20.026,-31.538c0,0 -5.971,0.435 -6.407,0.372c-0.437,-0.062 -0.583,0.001 -0.729,-0.868c-0.145,-0.87 -0.582,-1.304 -1.311,-1.18c0,0 -0.072,-0.311 -0.582,-0.373c0,0 0.364,-4.407 -3.205,-4.097c0,0 -5.097,-1.304 -10.267,0.186c0,0 -2.04,-0.248 -2.695,1.118c-0.656,1.366 -0.583,3.042 -0.583,3.042c0,0 -1.165,0 -1.31,0.31c-0.146,0.311 -0.146,0.124 -0.219,1.117c-0.072,0.994 -0.656,0.808 -0.656,0.808c0,0 -1.528,-0.559 -2.476,-0.745c-0.946,-0.186 -1.893,-0.435 -1.893,0.496l-2.258,0c0,0 -0.873,-0.373 -0.946,0.31c-0.073,0.683 -0.509,2.049 0.437,1.863c0.947,-0.186 7.72,0.311 7.72,0.311c0,0 0.072,0.869 0.873,1.179c0.801,0.311 1.093,1.117 1.093,1.738c0,0.621 -0.583,3.787 4.587,7.45l0,13.534l0.656,0c0,0 -0.146,1.18 0.947,1.49c0,0 -1.53,0.808 -1.603,2.732l0,2.173c0,0 -0.655,0.186 -0.582,0.745c0.073,0.559 -0.073,0.993 1.092,1.055l1.456,1.118l0,0.497l0.474,0.403l0,7.977c0,0 0.182,2.732 0.765,3.353c0,0 0.946,-0.248 1.165,-3.353l0,-8.256l0.218,-0.435l0,-0.434l1.529,-0.932c0,0 1.021,0.062 1.021,-0.62c0,-0.683 -0.219,-0.746 -0.438,-0.807l-0.218,-0.063c0,0 0.145,-1.862 -0.146,-2.918c-0.291,-1.055 -0.655,-2.11 -1.165,-2.11c0,0 0.801,-0.497 0.874,-1.429l0.51,0l0,-13.657c0,0 4.587,-1.49 4.806,-7.637c0,0 0.218,-1.49 0.728,-1.552c0.51,-0.062 1.311,-0.558 1.529,-1.055c0.219,-0.497 6.045,-0.497 7.064,-0.683c0,0 0.583,0.372 1.165,0.248c0.583,-0.124 0.802,-3.414 -1.02,-2.421" style="fill:#f26821;fill-rule:nonzero;"/></g></svg>