<?xml version="1.0" encoding="UTF-8" standalone="no"?><!DOCTYPE svg PUBLIC "-//W3C//DTD SVG 1.1//EN" "http://www.w3.org/Graphics/SVG/1.1/DTD/svg11.dtd"><svg width="100%" height="100%" viewBox="0 0 127 149" version="1.1" xmlns="http://www.w3.org/2000/svg" xmlns:xlink="http://www.w3.org/1999/xlink" xml:space="preserve" xmlns:serif="http://www.serif.com/" style="fill-rule:evenodd;clip-rule:evenodd;stroke-linejoin:round;stroke-miterlimit:2;"><g><path d="M63.349,46.047c-15.632,0 -28.349,12.718 -28.349,28.348c0,15.633 12.717,28.35 28.349,28.35c15.631,0 28.348,-12.717 28.348,-28.35c0,-15.63 -12.717,-28.348 -28.348,-28.348Zm16.831,23.01l-20.309,20.309c-0.853,0.852 -1.971,1.279 -3.088,1.279c-1.117,0 -2.234,-0.426 -3.086,-1.279l-7.761,-7.761c-1.705,-1.704 -1.705,-4.468 0,-6.173c1.704,-1.705 4.468,-1.705 6.173,0l4.674,4.674l17.224,-17.222c1.704,-1.705 4.468,-1.705 6.173,0c1.705,1.704 1.705,4.468 0,6.173Z" style="fill:#0e64b0;fill-rule:nonzero;"/><path d="M126.552,40.369l-0.005,-0.115c-0.065,-1.429 -0.108,-2.941 -0.134,-4.624c-0.121,-8.203 -6.643,-14.989 -14.847,-15.448c-17.107,-0.955 -30.341,-6.533 -41.648,-17.554l-0.096,-0.092c-3.688,-3.381 -9.252,-3.381 -12.941,0l-0.097,0.092c-11.307,11.021 -24.54,16.599 -41.647,17.555c-8.204,0.458 -14.726,7.244 -14.848,15.448c-0.025,1.671 -0.069,3.183 -0.134,4.623l-0.006,0.269c-0.333,17.444 -0.746,39.153 6.517,58.858c3.993,10.836 10.041,20.256 17.975,27.999c9.035,8.817 20.87,15.818 35.175,20.806c0.466,0.162 0.949,0.294 1.442,0.392c0.695,0.139 1.394,0.208 2.093,0.208c0.7,0 1.4,-0.069 2.094,-0.208c0.492,-0.098 0.979,-0.231 1.447,-0.395c14.288,-4.997 26.11,-12 35.138,-20.817c7.93,-7.745 13.978,-17.167 17.975,-28.005c7.29,-19.764 6.878,-41.515 6.547,-58.992Zm-63.203,71.106c-20.446,0 -37.08,-16.633 -37.08,-37.08c0,-20.446 16.634,-37.079 37.08,-37.079c20.445,0 37.08,16.633 37.08,37.079c0,20.447 -16.635,37.08 -37.08,37.08Z" style="fill:#0e64b0;fill-rule:nonzero;"/></g></svg>