<?xml version="1.0" encoding="UTF-8" standalone="no"?><!DOCTYPE svg PUBLIC "-//W3C//DTD SVG 1.1//EN" "http://www.w3.org/Graphics/SVG/1.1/DTD/svg11.dtd"><svg width="100%" height="100%" viewBox="0 0 39 39" version="1.1" xmlns="http://www.w3.org/2000/svg" xmlns:xlink="http://www.w3.org/1999/xlink" xml:space="preserve" xmlns:serif="http://www.serif.com/" style="fill-rule:evenodd;clip-rule:evenodd;stroke-linejoin:round;stroke-miterlimit:2;"><path d="M38.53,19.265c0,-10.638 -8.627,-19.265 -19.265,-19.265c-10.638,0 -19.265,8.627 -19.265,19.265c0,10.638 8.627,19.265 19.265,19.265c0.113,0 0.226,-0.003 0.339,-0.005l0,-14.996l-4.139,0l0,-4.824l4.139,0l0,-3.55c0,-4.116 2.513,-6.357 6.185,-6.357c1.758,0 3.27,0.131 3.71,0.19l0,4.302l-2.532,0c-1.997,0 -2.384,0.95 -2.384,2.343l0,3.072l4.776,0l-0.622,4.824l-4.154,0l0,14.257c8.052,-2.309 13.947,-9.728 13.947,-18.521Z" style="fill:#f26821;fill-rule:nonzero;"/></svg>