<?xml version="1.0" encoding="UTF-8" standalone="no"?><!DOCTYPE svg PUBLIC "-//W3C//DTD SVG 1.1//EN" "http://www.w3.org/Graphics/SVG/1.1/DTD/svg11.dtd"><svg width="100%" height="100%" viewBox="0 0 149 149" version="1.1" xmlns="http://www.w3.org/2000/svg" xmlns:xlink="http://www.w3.org/1999/xlink" xml:space="preserve" xmlns:serif="http://www.serif.com/" style="fill-rule:evenodd;clip-rule:evenodd;stroke-linejoin:round;stroke-miterlimit:2;"><path d="M79.793,0.196c-3.595,-0.261 -7.205,-0.261 -10.8,0l-2.46,9.954c-3.197,0.391 -6.36,1.02 -9.463,1.883l-6.082,-8.255c-3.422,1.134 -6.756,2.515 -9.978,4.133l1.537,10.137c-2.804,1.585 -5.486,3.377 -8.023,5.361l-8.778,-5.299c-2.727,2.357 -5.279,4.909 -7.636,7.636l5.299,8.778c-1.984,2.537 -3.776,5.219 -5.361,8.023l-10.137,-1.537c-1.618,3.222 -2.999,6.556 -4.133,9.978l8.255,6.082c-0.863,3.103 -1.492,6.266 -1.883,9.463l-9.954,2.46c-0.261,3.595 -0.261,7.205 0,10.8l9.954,2.46c0.391,3.197 1.02,6.36 1.883,9.463l-8.255,6.082c1.134,3.422 2.515,6.756 4.133,9.978l10.137,-1.537c1.585,2.804 3.377,5.486 5.361,8.023l-5.299,8.778c2.357,2.727 4.909,5.279 7.636,7.636l8.778,-5.299c2.537,1.984 5.219,3.776 8.023,5.361l-1.537,10.138c3.222,1.617 6.556,2.998 9.978,4.132l6.082,-8.254c3.103,0.862 6.266,1.491 9.463,1.882l2.46,9.954c3.595,0.262 7.205,0.262 10.8,0l2.46,-9.954c3.197,-0.391 6.36,-1.02 9.463,-1.882l6.082,8.254c3.422,-1.134 6.756,-2.515 9.978,-4.132l-1.537,-10.138c2.804,-1.585 5.486,-3.377 8.023,-5.361l8.778,5.299c2.727,-2.357 5.279,-4.909 7.636,-7.636l-5.299,-8.778c1.984,-2.537 3.776,-5.219 5.361,-8.023l10.138,1.537c1.617,-3.222 2.998,-6.556 4.132,-9.978l-8.254,-6.082c0.862,-3.103 1.491,-6.266 1.882,-9.463l9.954,-2.46c0.262,-3.595 0.262,-7.205 0,-10.8l-9.954,-2.46c-0.391,-3.197 -1.02,-6.36 -1.882,-9.463l8.254,-6.082c-1.134,-3.422 -2.515,-6.756 -4.132,-9.978l-10.138,1.537c-1.585,-2.804 -3.377,-5.486 -5.361,-8.023l5.299,-8.778c-2.357,-2.727 -4.909,-5.279 -7.636,-7.636l-8.778,5.299c-2.537,-1.984 -5.219,-3.776 -8.023,-5.361l1.537,-10.137c-3.222,-1.618 -6.556,-2.999 -9.978,-4.133l-6.082,8.255c-3.103,-0.863 -6.266,-1.492 -9.463,-1.883l-2.46,-9.954Zm-5.4,31.793c23.404,0 42.404,19.001 42.404,42.404c0,23.404 -19,42.404 -42.404,42.404c-23.403,0 -42.404,-19 -42.404,-42.404c0,-23.403 19.001,-42.404 42.404,-42.404Z" style="fill:#fff;"/></svg>