<?xml version="1.0" encoding="UTF-8" standalone="no"?><!DOCTYPE svg PUBLIC "-//W3C//DTD SVG 1.1//EN" "http://www.w3.org/Graphics/SVG/1.1/DTD/svg11.dtd"><svg width="100%" height="100%" viewBox="0 0 124 149" version="1.1" xmlns="http://www.w3.org/2000/svg" xmlns:xlink="http://www.w3.org/1999/xlink" xml:space="preserve" xmlns:serif="http://www.serif.com/" style="fill-rule:evenodd;clip-rule:evenodd;stroke-linejoin:round;stroke-miterlimit:2;"><g><path d="M107.017,44.271l8.904,-8.905l-8.762,-8.765l-9.526,9.526c-8.701,-6.167 -18.857,-9.968 -29.47,-11.03l0,-12.704l12.394,0l0,-12.393l-37.18,0l0,12.393l12.393,0l0,12.704c-10.612,1.062 -20.768,4.863 -29.47,11.03l-9.526,-9.526l-8.762,8.765l8.905,8.905c-10.861,11.499 -16.917,26.731 -16.917,42.548c0,33.994 27.973,61.967 61.967,61.967c33.994,0 61.967,-27.973 61.967,-61.967c0,-15.817 -6.057,-31.049 -16.917,-42.548Zm-45.05,92.056c-27.195,0 -49.574,-22.378 -49.574,-49.573c0,-27.196 22.379,-49.574 49.574,-49.574c27.195,0 49.573,22.378 49.573,49.574c-0.03,27.183 -22.39,49.542 -49.573,49.573Z" style="fill:#f26821;fill-rule:nonzero;"/><path d="M61.967,49.573l0,37.181l-37.18,0c0,20.396 16.783,37.18 37.18,37.18c20.396,0 37.18,-16.784 37.18,-37.18c0,-20.397 -16.784,-37.181 -37.18,-37.181Z" style="fill:#f26821;fill-rule:nonzero;"/></g></svg>