<?xml version="1.0" encoding="UTF-8" standalone="no"?><!DOCTYPE svg PUBLIC "-//W3C//DTD SVG 1.1//EN" "http://www.w3.org/Graphics/SVG/1.1/DTD/svg11.dtd"><svg width="100%" height="100%" viewBox="0 0 39 39" version="1.1" xmlns="http://www.w3.org/2000/svg" xmlns:xlink="http://www.w3.org/1999/xlink" xml:space="preserve" xmlns:serif="http://www.serif.com/" style="fill-rule:evenodd;clip-rule:evenodd;stroke-linejoin:round;stroke-miterlimit:2;"><g><path d="M19.028,0l-0.01,0c-10.489,0 -19.018,8.532 -19.018,19.023c0,4.161 1.341,8.018 3.622,11.15l-2.371,7.067l7.312,-2.337c3.008,1.992 6.596,3.143 10.465,3.143c10.489,0 19.018,-8.534 19.018,-19.023c0,-10.489 -8.529,-19.023 -19.018,-19.023Zm11.069,26.863c-0.459,1.296 -2.28,2.371 -3.733,2.685c-0.994,0.211 -2.293,0.38 -6.663,-1.432c-5.591,-2.316 -9.191,-7.997 -9.471,-8.365c-0.269,-0.369 -2.259,-3.008 -2.259,-5.738c0,-2.73 1.386,-4.059 1.945,-4.63c0.459,-0.468 1.217,-0.682 1.945,-0.682c0.235,0 0.447,0.012 0.637,0.021c0.559,0.024 0.84,0.057 1.208,0.939c0.459,1.106 1.577,3.836 1.71,4.116c0.135,0.281 0.271,0.662 0.081,1.03c-0.179,0.381 -0.336,0.549 -0.616,0.873c-0.281,0.323 -0.547,0.57 -0.828,0.918c-0.256,0.302 -0.547,0.625 -0.223,1.184c0.323,0.547 1.441,2.371 3.086,3.835c2.124,1.891 3.845,2.495 4.461,2.752c0.459,0.19 1.006,0.145 1.341,-0.212c0.426,-0.459 0.951,-1.22 1.487,-1.969c0.38,-0.537 0.86,-0.604 1.364,-0.414c0.514,0.179 3.232,1.522 3.791,1.8c0.559,0.281 0.927,0.414 1.063,0.65c0.133,0.235 0.133,1.341 -0.326,2.639Z" style="fill:#0e64b0;fill-rule:nonzero;"/></g></svg>