<?xml version="1.0" encoding="UTF-8" standalone="no"?><!DOCTYPE svg PUBLIC "-//W3C//DTD SVG 1.1//EN" "http://www.w3.org/Graphics/SVG/1.1/DTD/svg11.dtd"><svg width="100%" height="100%" viewBox="0 0 120 120" version="1.1" xmlns="http://www.w3.org/2000/svg" xmlns:xlink="http://www.w3.org/1999/xlink" xml:space="preserve" xmlns:serif="http://www.serif.com/" style="fill-rule:evenodd;clip-rule:evenodd;stroke-linejoin:round;stroke-miterlimit:2;"><clipPath id="_clip1"><rect id="whatsapp_ico" x="0" y="0" width="120" height="120"/></clipPath><g clip-path="url(#_clip1)"><path d="M102.6,17.245c-11.4,-11.02 -26.4,-17.245 -42.375,-17.245c-45.85,0 -74.64,49.675 -51.745,89.19l-8.48,30.81l31.675,-8.26c13.8,7.455 25.105,6.795 28.58,7.235c53.165,0 79.63,-64.32 42.27,-101.535l0.075,-0.195Z" style="fill:#eceff1;fill-rule:nonzero;"/><path d="M60.335,108.755l-0.03,-0.005l-0.08,0c-15.91,0 -26.075,-7.535 -27.075,-7.97l-18.75,4.875l5.025,-18.225l-1.195,-1.875c-4.95,-7.88 -7.58,-16.955 -7.58,-26.3c0,-43.965 53.725,-65.95 84.815,-34.875c31.015,30.75 9.24,84.375 -35.13,84.375Z" style="fill:#4caf50;fill-rule:nonzero;"/><path d="M87.535,71.535l-0.045,0.375c-1.505,-0.75 -8.835,-4.335 -10.2,-4.83c-3.065,-1.135 -2.2,-0.18 -8.085,6.56c-0.875,0.975 -1.745,1.05 -3.23,0.375c-1.5,-0.75 -6.315,-2.325 -12.015,-7.425c-4.44,-3.975 -7.42,-8.85 -8.3,-10.35c-1.465,-2.53 1.6,-2.89 4.39,-8.17c0.5,-1.05 0.245,-1.875 -0.125,-2.62c-0.375,-0.75 -3.36,-8.1 -4.61,-11.03c-1.2,-2.92 -2.435,-2.55 -3.36,-2.55c-2.88,-0.25 -4.985,-0.21 -6.84,1.72c-8.07,8.87 -6.035,18.02 0.87,27.75c13.57,17.76 20.8,21.03 34.02,25.57c3.57,1.135 6.825,0.975 9.4,0.605c2.87,-0.455 8.835,-3.605 10.08,-7.13c1.275,-3.525 1.275,-6.45 0.9,-7.125c-0.37,-0.675 -1.35,-1.05 -2.85,-1.725Z" style="fill:#fafafa;fill-rule:nonzero;"/></g><g id="whatsapp_ico1" serif:id="whatsapp_ico"></g></svg>