<?xml version="1.0" encoding="UTF-8" standalone="no"?>
<!DOCTYPE svg PUBLIC "-//W3C//DTD SVG 1.1//EN" "http://www.w3.org/Graphics/SVG/1.1/DTD/svg11.dtd">
<svg width="100%" height="100%" viewBox="0 0 108 43" version="1.1" xmlns="http://www.w3.org/2000/svg" xmlns:xlink="http://www.w3.org/1999/xlink" xml:space="preserve" xmlns:serif="http://www.serif.com/" style="fill-rule:evenodd;clip-rule:evenodd;stroke-linejoin:round;stroke-miterlimit:2;">
    <g transform="matrix(1,0,0,1,-1703.93,-320.597)">
        <g transform="matrix(0.24305,0,0,0.24305,1634.42,447.651)">
            <circle cx="298.11" cy="-510.651" r="12.1" style="fill:url(#_Linear1);"/>
            <g transform="matrix(1,0,0,1,0,37.8601)">
                <circle cx="298.11" cy="-510.651" r="12.1" style="fill:url(#_Linear2);"/>
            </g>
            <g transform="matrix(1,0,0,1,0,75.7203)">
                <circle cx="298.11" cy="-510.651" r="12.1" style="fill:url(#_Linear3);"/>
            </g>
            <g transform="matrix(1,0,0,1,0,113.58)">
                <circle cx="298.11" cy="-510.651" r="12.1" style="fill:url(#_Linear4);"/>
            </g>
            <g transform="matrix(1,0,0,1,0,151.441)">
                <circle cx="298.11" cy="-510.651" r="12.1" style="fill:url(#_Linear5);"/>
            </g>
            <g transform="matrix(1,0,0,1,37.8601,0)">
                <circle cx="298.11" cy="-510.651" r="12.1" style="fill:url(#_Linear6);"/>
            </g>
            <g transform="matrix(1,0,0,1,37.8601,37.8601)">
                <circle cx="298.11" cy="-510.651" r="12.1" style="fill:url(#_Linear7);"/>
            </g>
            <g transform="matrix(1,0,0,1,37.8601,75.7203)">
                <circle cx="298.11" cy="-510.651" r="12.1" style="fill:url(#_Linear8);"/>
            </g>
            <g transform="matrix(1,0,0,1,37.8601,113.58)">
                <circle cx="298.11" cy="-510.651" r="12.1" style="fill:url(#_Linear9);"/>
            </g>
            <g transform="matrix(1,0,0,1,37.8601,151.441)">
                <circle cx="298.11" cy="-510.651" r="12.1" style="fill:url(#_Linear10);"/>
            </g>
            <g transform="matrix(1,0,0,1,75.7203,0)">
                <circle cx="298.11" cy="-510.651" r="12.1" style="fill:url(#_Linear11);"/>
            </g>
            <g transform="matrix(1,0,0,1,75.7203,37.8601)">
                <circle cx="298.11" cy="-510.651" r="12.1" style="fill:url(#_Linear12);"/>
            </g>
            <g transform="matrix(1,0,0,1,75.7203,75.7203)">
                <circle cx="298.11" cy="-510.651" r="12.1" style="fill:url(#_Linear13);"/>
            </g>
            <g transform="matrix(1,0,0,1,75.7203,113.58)">
                <circle cx="298.11" cy="-510.651" r="12.1" style="fill:url(#_Linear14);"/>
            </g>
            <g transform="matrix(1,0,0,1,75.7203,151.441)">
                <circle cx="298.11" cy="-510.651" r="12.1" style="fill:url(#_Linear15);"/>
            </g>
            <g transform="matrix(1,0,0,1,113.58,0)">
                <circle cx="298.11" cy="-510.651" r="12.1" style="fill:url(#_Linear16);"/>
            </g>
            <g transform="matrix(1,0,0,1,113.58,37.8601)">
                <circle cx="298.11" cy="-510.651" r="12.1" style="fill:url(#_Linear17);"/>
            </g>
            <g transform="matrix(1,0,0,1,113.58,75.7203)">
                <circle cx="298.11" cy="-510.651" r="12.1" style="fill:url(#_Linear18);"/>
            </g>
            <g transform="matrix(1,0,0,1,113.58,113.58)">
                <circle cx="298.11" cy="-510.651" r="12.1" style="fill:url(#_Linear19);"/>
            </g>
            <g transform="matrix(1,0,0,1,113.58,151.441)">
                <circle cx="298.11" cy="-510.651" r="12.1" style="fill:url(#_Linear20);"/>
            </g>
            <g transform="matrix(1,0,0,1,151.441,0)">
                <circle cx="298.11" cy="-510.651" r="12.1" style="fill:url(#_Linear21);"/>
            </g>
            <g transform="matrix(1,0,0,1,151.441,37.8601)">
                <circle cx="298.11" cy="-510.651" r="12.1" style="fill:url(#_Linear22);"/>
            </g>
            <g transform="matrix(1,0,0,1,151.441,75.7203)">
                <circle cx="298.11" cy="-510.651" r="12.1" style="fill:url(#_Linear23);"/>
            </g>
            <g transform="matrix(1,0,0,1,151.441,113.58)">
                <circle cx="298.11" cy="-510.651" r="12.1" style="fill:url(#_Linear24);"/>
            </g>
            <g transform="matrix(1,0,0,1,151.441,151.441)">
                <circle cx="298.11" cy="-510.651" r="12.1" style="fill:url(#_Linear25);"/>
            </g>
            <g transform="matrix(1,0,0,1,189.301,0)">
                <circle cx="298.11" cy="-510.651" r="12.1" style="fill:url(#_Linear26);"/>
            </g>
            <g transform="matrix(1,0,0,1,189.301,37.8601)">
                <circle cx="298.11" cy="-510.651" r="12.1" style="fill:url(#_Linear27);"/>
            </g>
            <g transform="matrix(1,0,0,1,189.301,75.7203)">
                <circle cx="298.11" cy="-510.651" r="12.1" style="fill:url(#_Linear28);"/>
            </g>
            <g transform="matrix(1,0,0,1,189.301,113.58)">
                <circle cx="298.11" cy="-510.651" r="12.1" style="fill:url(#_Linear29);"/>
            </g>
            <g transform="matrix(1,0,0,1,189.301,151.441)">
                <circle cx="298.11" cy="-510.651" r="12.1" style="fill:url(#_Linear30);"/>
            </g>
            <g transform="matrix(1,0,0,1,227.161,0)">
                <circle cx="298.11" cy="-510.651" r="12.1" style="fill:url(#_Linear31);"/>
            </g>
            <g transform="matrix(1,0,0,1,227.161,37.8601)">
                <circle cx="298.11" cy="-510.651" r="12.1" style="fill:url(#_Linear32);"/>
            </g>
            <g transform="matrix(1,0,0,1,227.161,75.7203)">
                <circle cx="298.11" cy="-510.651" r="12.1" style="fill:url(#_Linear33);"/>
            </g>
            <g transform="matrix(1,0,0,1,227.161,113.58)">
                <circle cx="298.11" cy="-510.651" r="12.1" style="fill:url(#_Linear34);"/>
            </g>
            <g transform="matrix(1,0,0,1,227.161,151.441)">
                <circle cx="298.11" cy="-510.651" r="12.1" style="fill:url(#_Linear35);"/>
            </g>
            <g transform="matrix(1,0,0,1,265.021,0)">
                <circle cx="298.11" cy="-510.651" r="12.1" style="fill:url(#_Linear36);"/>
            </g>
            <g transform="matrix(1,0,0,1,265.021,37.8601)">
                <circle cx="298.11" cy="-510.651" r="12.1" style="fill:url(#_Linear37);"/>
            </g>
            <g transform="matrix(1,0,0,1,265.021,75.7203)">
                <circle cx="298.11" cy="-510.651" r="12.1" style="fill:url(#_Linear38);"/>
            </g>
            <g transform="matrix(1,0,0,1,265.021,113.58)">
                <circle cx="298.11" cy="-510.651" r="12.1" style="fill:url(#_Linear39);"/>
            </g>
            <g transform="matrix(1,0,0,1,265.021,151.441)">
                <circle cx="298.11" cy="-510.651" r="12.1" style="fill:url(#_Linear40);"/>
            </g>
            <g transform="matrix(1,0,0,1,302.881,0)">
                <circle cx="298.11" cy="-510.651" r="12.1" style="fill:url(#_Linear41);"/>
            </g>
            <g transform="matrix(1,0,0,1,302.881,37.8601)">
                <circle cx="298.11" cy="-510.651" r="12.1" style="fill:url(#_Linear42);"/>
            </g>
            <g transform="matrix(1,0,0,1,302.881,75.7203)">
                <circle cx="298.11" cy="-510.651" r="12.1" style="fill:url(#_Linear43);"/>
            </g>
            <g transform="matrix(1,0,0,1,302.881,113.58)">
                <circle cx="298.11" cy="-510.651" r="12.1" style="fill:url(#_Linear44);"/>
            </g>
            <g transform="matrix(1,0,0,1,302.881,151.441)">
                <circle cx="298.11" cy="-510.651" r="12.1" style="fill:url(#_Linear45);"/>
            </g>
            <g transform="matrix(1,0,0,1,340.741,0)">
                <circle cx="298.11" cy="-510.651" r="12.1" style="fill:url(#_Linear46);"/>
            </g>
            <g transform="matrix(1,0,0,1,340.741,37.8601)">
                <circle cx="298.11" cy="-510.651" r="12.1" style="fill:url(#_Linear47);"/>
            </g>
            <g transform="matrix(1,0,0,1,340.741,75.7203)">
                <circle cx="298.11" cy="-510.651" r="12.1" style="fill:url(#_Linear48);"/>
            </g>
            <g transform="matrix(1,0,0,1,340.741,113.58)">
                <circle cx="298.11" cy="-510.651" r="12.1" style="fill:url(#_Linear49);"/>
            </g>
            <g transform="matrix(1,0,0,1,340.741,151.441)">
                <circle cx="298.11" cy="-510.651" r="12.1" style="fill:url(#_Linear50);"/>
            </g>
            <g transform="matrix(1,0,0,1,378.601,0)">
                <circle cx="298.11" cy="-510.651" r="12.1" style="fill:url(#_Linear51);"/>
            </g>
            <g transform="matrix(1,0,0,1,378.601,37.8601)">
                <circle cx="298.11" cy="-510.651" r="12.1" style="fill:url(#_Linear52);"/>
            </g>
            <g transform="matrix(1,0,0,1,378.601,75.7203)">
                <circle cx="298.11" cy="-510.651" r="12.1" style="fill:url(#_Linear53);"/>
            </g>
            <g transform="matrix(1,0,0,1,378.601,113.58)">
                <circle cx="298.11" cy="-510.651" r="12.1" style="fill:url(#_Linear54);"/>
            </g>
            <g transform="matrix(1,0,0,1,378.601,151.441)">
                <circle cx="298.11" cy="-510.651" r="12.1" style="fill:url(#_Linear55);"/>
            </g>
            <g transform="matrix(1,0,0,1,416.461,0)">
                <circle cx="298.11" cy="-510.651" r="12.1" style="fill:url(#_Linear56);"/>
            </g>
            <g transform="matrix(1,0,0,1,416.461,37.8601)">
                <circle cx="298.11" cy="-510.651" r="12.1" style="fill:url(#_Linear57);"/>
            </g>
            <g transform="matrix(1,0,0,1,416.461,75.7203)">
                <circle cx="298.11" cy="-510.651" r="12.1" style="fill:url(#_Linear58);"/>
            </g>
            <g transform="matrix(1,0,0,1,416.461,113.58)">
                <circle cx="298.11" cy="-510.651" r="12.1" style="fill:url(#_Linear59);"/>
            </g>
            <g transform="matrix(1,0,0,1,416.461,151.441)">
                <circle cx="298.11" cy="-510.651" r="12.1" style="fill:url(#_Linear60);"/>
            </g>
        </g>
    </g>
    <defs>
        <linearGradient id="_Linear1" x1="0" y1="0" x2="1" y2="0" gradientUnits="userSpaceOnUse" gradientTransform="matrix(404.361,51.5199,-51.5199,404.361,298.11,-460.691)"><stop offset="0" style="stop-color:rgb(39,15,66);stop-opacity:1"/><stop offset="1" style="stop-color:rgb(255,181,24);stop-opacity:1"/></linearGradient>
        <linearGradient id="_Linear2" x1="0" y1="0" x2="1" y2="0" gradientUnits="userSpaceOnUse" gradientTransform="matrix(404.361,51.5199,-51.5199,404.361,298.11,-498.551)"><stop offset="0" style="stop-color:rgb(39,15,66);stop-opacity:1"/><stop offset="1" style="stop-color:rgb(255,181,24);stop-opacity:1"/></linearGradient>
        <linearGradient id="_Linear3" x1="0" y1="0" x2="1" y2="0" gradientUnits="userSpaceOnUse" gradientTransform="matrix(404.361,51.5199,-51.5199,404.361,298.11,-536.411)"><stop offset="0" style="stop-color:rgb(39,15,66);stop-opacity:1"/><stop offset="1" style="stop-color:rgb(255,181,24);stop-opacity:1"/></linearGradient>
        <linearGradient id="_Linear4" x1="0" y1="0" x2="1" y2="0" gradientUnits="userSpaceOnUse" gradientTransform="matrix(404.361,51.5199,-51.5199,404.361,298.11,-574.271)"><stop offset="0" style="stop-color:rgb(39,15,66);stop-opacity:1"/><stop offset="1" style="stop-color:rgb(255,181,24);stop-opacity:1"/></linearGradient>
        <linearGradient id="_Linear5" x1="0" y1="0" x2="1" y2="0" gradientUnits="userSpaceOnUse" gradientTransform="matrix(404.361,51.5199,-51.5199,404.361,298.11,-612.132)"><stop offset="0" style="stop-color:rgb(39,15,66);stop-opacity:1"/><stop offset="1" style="stop-color:rgb(255,181,24);stop-opacity:1"/></linearGradient>
        <linearGradient id="_Linear6" x1="0" y1="0" x2="1" y2="0" gradientUnits="userSpaceOnUse" gradientTransform="matrix(404.361,51.5199,-51.5199,404.361,260.25,-460.691)"><stop offset="0" style="stop-color:rgb(39,15,66);stop-opacity:1"/><stop offset="1" style="stop-color:rgb(255,181,24);stop-opacity:1"/></linearGradient>
        <linearGradient id="_Linear7" x1="0" y1="0" x2="1" y2="0" gradientUnits="userSpaceOnUse" gradientTransform="matrix(404.361,51.5199,-51.5199,404.361,260.25,-498.551)"><stop offset="0" style="stop-color:rgb(39,15,66);stop-opacity:1"/><stop offset="1" style="stop-color:rgb(255,181,24);stop-opacity:1"/></linearGradient>
        <linearGradient id="_Linear8" x1="0" y1="0" x2="1" y2="0" gradientUnits="userSpaceOnUse" gradientTransform="matrix(404.361,51.5199,-51.5199,404.361,260.25,-536.411)"><stop offset="0" style="stop-color:rgb(39,15,66);stop-opacity:1"/><stop offset="1" style="stop-color:rgb(255,181,24);stop-opacity:1"/></linearGradient>
        <linearGradient id="_Linear9" x1="0" y1="0" x2="1" y2="0" gradientUnits="userSpaceOnUse" gradientTransform="matrix(404.361,51.5199,-51.5199,404.361,260.25,-574.271)"><stop offset="0" style="stop-color:rgb(39,15,66);stop-opacity:1"/><stop offset="1" style="stop-color:rgb(255,181,24);stop-opacity:1"/></linearGradient>
        <linearGradient id="_Linear10" x1="0" y1="0" x2="1" y2="0" gradientUnits="userSpaceOnUse" gradientTransform="matrix(404.361,51.5199,-51.5199,404.361,260.25,-612.132)"><stop offset="0" style="stop-color:rgb(39,15,66);stop-opacity:1"/><stop offset="1" style="stop-color:rgb(255,181,24);stop-opacity:1"/></linearGradient>
        <linearGradient id="_Linear11" x1="0" y1="0" x2="1" y2="0" gradientUnits="userSpaceOnUse" gradientTransform="matrix(404.361,51.5199,-51.5199,404.361,222.39,-460.691)"><stop offset="0" style="stop-color:rgb(39,15,66);stop-opacity:1"/><stop offset="1" style="stop-color:rgb(255,181,24);stop-opacity:1"/></linearGradient>
        <linearGradient id="_Linear12" x1="0" y1="0" x2="1" y2="0" gradientUnits="userSpaceOnUse" gradientTransform="matrix(404.361,51.5199,-51.5199,404.361,222.39,-498.551)"><stop offset="0" style="stop-color:rgb(39,15,66);stop-opacity:1"/><stop offset="1" style="stop-color:rgb(255,181,24);stop-opacity:1"/></linearGradient>
        <linearGradient id="_Linear13" x1="0" y1="0" x2="1" y2="0" gradientUnits="userSpaceOnUse" gradientTransform="matrix(404.361,51.5199,-51.5199,404.361,222.39,-536.411)"><stop offset="0" style="stop-color:rgb(39,15,66);stop-opacity:1"/><stop offset="1" style="stop-color:rgb(255,181,24);stop-opacity:1"/></linearGradient>
        <linearGradient id="_Linear14" x1="0" y1="0" x2="1" y2="0" gradientUnits="userSpaceOnUse" gradientTransform="matrix(404.361,51.5199,-51.5199,404.361,222.39,-574.271)"><stop offset="0" style="stop-color:rgb(39,15,66);stop-opacity:1"/><stop offset="1" style="stop-color:rgb(255,181,24);stop-opacity:1"/></linearGradient>
        <linearGradient id="_Linear15" x1="0" y1="0" x2="1" y2="0" gradientUnits="userSpaceOnUse" gradientTransform="matrix(404.361,51.5199,-51.5199,404.361,222.39,-612.132)"><stop offset="0" style="stop-color:rgb(39,15,66);stop-opacity:1"/><stop offset="1" style="stop-color:rgb(255,181,24);stop-opacity:1"/></linearGradient>
        <linearGradient id="_Linear16" x1="0" y1="0" x2="1" y2="0" gradientUnits="userSpaceOnUse" gradientTransform="matrix(404.361,51.5199,-51.5199,404.361,184.53,-460.691)"><stop offset="0" style="stop-color:rgb(39,15,66);stop-opacity:1"/><stop offset="1" style="stop-color:rgb(255,181,24);stop-opacity:1"/></linearGradient>
        <linearGradient id="_Linear17" x1="0" y1="0" x2="1" y2="0" gradientUnits="userSpaceOnUse" gradientTransform="matrix(404.361,51.5199,-51.5199,404.361,184.53,-498.551)"><stop offset="0" style="stop-color:rgb(39,15,66);stop-opacity:1"/><stop offset="1" style="stop-color:rgb(255,181,24);stop-opacity:1"/></linearGradient>
        <linearGradient id="_Linear18" x1="0" y1="0" x2="1" y2="0" gradientUnits="userSpaceOnUse" gradientTransform="matrix(404.361,51.5199,-51.5199,404.361,184.53,-536.411)"><stop offset="0" style="stop-color:rgb(39,15,66);stop-opacity:1"/><stop offset="1" style="stop-color:rgb(255,181,24);stop-opacity:1"/></linearGradient>
        <linearGradient id="_Linear19" x1="0" y1="0" x2="1" y2="0" gradientUnits="userSpaceOnUse" gradientTransform="matrix(404.361,51.5199,-51.5199,404.361,184.53,-574.271)"><stop offset="0" style="stop-color:rgb(39,15,66);stop-opacity:1"/><stop offset="1" style="stop-color:rgb(255,181,24);stop-opacity:1"/></linearGradient>
        <linearGradient id="_Linear20" x1="0" y1="0" x2="1" y2="0" gradientUnits="userSpaceOnUse" gradientTransform="matrix(404.361,51.5199,-51.5199,404.361,184.53,-612.132)"><stop offset="0" style="stop-color:rgb(39,15,66);stop-opacity:1"/><stop offset="1" style="stop-color:rgb(255,181,24);stop-opacity:1"/></linearGradient>
        <linearGradient id="_Linear21" x1="0" y1="0" x2="1" y2="0" gradientUnits="userSpaceOnUse" gradientTransform="matrix(404.361,51.5199,-51.5199,404.361,146.669,-460.691)"><stop offset="0" style="stop-color:rgb(39,15,66);stop-opacity:1"/><stop offset="1" style="stop-color:rgb(255,181,24);stop-opacity:1"/></linearGradient>
        <linearGradient id="_Linear22" x1="0" y1="0" x2="1" y2="0" gradientUnits="userSpaceOnUse" gradientTransform="matrix(404.361,51.5199,-51.5199,404.361,146.669,-498.551)"><stop offset="0" style="stop-color:rgb(39,15,66);stop-opacity:1"/><stop offset="1" style="stop-color:rgb(255,181,24);stop-opacity:1"/></linearGradient>
        <linearGradient id="_Linear23" x1="0" y1="0" x2="1" y2="0" gradientUnits="userSpaceOnUse" gradientTransform="matrix(404.361,51.5199,-51.5199,404.361,146.669,-536.411)"><stop offset="0" style="stop-color:rgb(39,15,66);stop-opacity:1"/><stop offset="1" style="stop-color:rgb(255,181,24);stop-opacity:1"/></linearGradient>
        <linearGradient id="_Linear24" x1="0" y1="0" x2="1" y2="0" gradientUnits="userSpaceOnUse" gradientTransform="matrix(404.361,51.5199,-51.5199,404.361,146.669,-574.271)"><stop offset="0" style="stop-color:rgb(39,15,66);stop-opacity:1"/><stop offset="1" style="stop-color:rgb(255,181,24);stop-opacity:1"/></linearGradient>
        <linearGradient id="_Linear25" x1="0" y1="0" x2="1" y2="0" gradientUnits="userSpaceOnUse" gradientTransform="matrix(404.361,51.5199,-51.5199,404.361,146.669,-612.132)"><stop offset="0" style="stop-color:rgb(39,15,66);stop-opacity:1"/><stop offset="1" style="stop-color:rgb(255,181,24);stop-opacity:1"/></linearGradient>
        <linearGradient id="_Linear26" x1="0" y1="0" x2="1" y2="0" gradientUnits="userSpaceOnUse" gradientTransform="matrix(404.361,51.5199,-51.5199,404.361,108.809,-460.691)"><stop offset="0" style="stop-color:rgb(39,15,66);stop-opacity:1"/><stop offset="1" style="stop-color:rgb(255,181,24);stop-opacity:1"/></linearGradient>
        <linearGradient id="_Linear27" x1="0" y1="0" x2="1" y2="0" gradientUnits="userSpaceOnUse" gradientTransform="matrix(404.361,51.5199,-51.5199,404.361,108.809,-498.551)"><stop offset="0" style="stop-color:rgb(39,15,66);stop-opacity:1"/><stop offset="1" style="stop-color:rgb(255,181,24);stop-opacity:1"/></linearGradient>
        <linearGradient id="_Linear28" x1="0" y1="0" x2="1" y2="0" gradientUnits="userSpaceOnUse" gradientTransform="matrix(404.361,51.5199,-51.5199,404.361,108.809,-536.411)"><stop offset="0" style="stop-color:rgb(39,15,66);stop-opacity:1"/><stop offset="1" style="stop-color:rgb(255,181,24);stop-opacity:1"/></linearGradient>
        <linearGradient id="_Linear29" x1="0" y1="0" x2="1" y2="0" gradientUnits="userSpaceOnUse" gradientTransform="matrix(404.361,51.5199,-51.5199,404.361,108.809,-574.271)"><stop offset="0" style="stop-color:rgb(39,15,66);stop-opacity:1"/><stop offset="1" style="stop-color:rgb(255,181,24);stop-opacity:1"/></linearGradient>
        <linearGradient id="_Linear30" x1="0" y1="0" x2="1" y2="0" gradientUnits="userSpaceOnUse" gradientTransform="matrix(404.361,51.5199,-51.5199,404.361,108.809,-612.132)"><stop offset="0" style="stop-color:rgb(39,15,66);stop-opacity:1"/><stop offset="1" style="stop-color:rgb(255,181,24);stop-opacity:1"/></linearGradient>
        <linearGradient id="_Linear31" x1="0" y1="0" x2="1" y2="0" gradientUnits="userSpaceOnUse" gradientTransform="matrix(404.361,51.5199,-51.5199,404.361,70.9492,-460.691)"><stop offset="0" style="stop-color:rgb(39,15,66);stop-opacity:1"/><stop offset="1" style="stop-color:rgb(255,181,24);stop-opacity:1"/></linearGradient>
        <linearGradient id="_Linear32" x1="0" y1="0" x2="1" y2="0" gradientUnits="userSpaceOnUse" gradientTransform="matrix(404.361,51.5199,-51.5199,404.361,70.9492,-498.551)"><stop offset="0" style="stop-color:rgb(39,15,66);stop-opacity:1"/><stop offset="1" style="stop-color:rgb(255,181,24);stop-opacity:1"/></linearGradient>
        <linearGradient id="_Linear33" x1="0" y1="0" x2="1" y2="0" gradientUnits="userSpaceOnUse" gradientTransform="matrix(404.361,51.5199,-51.5199,404.361,70.9492,-536.411)"><stop offset="0" style="stop-color:rgb(39,15,66);stop-opacity:1"/><stop offset="1" style="stop-color:rgb(255,181,24);stop-opacity:1"/></linearGradient>
        <linearGradient id="_Linear34" x1="0" y1="0" x2="1" y2="0" gradientUnits="userSpaceOnUse" gradientTransform="matrix(404.361,51.5199,-51.5199,404.361,70.9492,-574.271)"><stop offset="0" style="stop-color:rgb(39,15,66);stop-opacity:1"/><stop offset="1" style="stop-color:rgb(255,181,24);stop-opacity:1"/></linearGradient>
        <linearGradient id="_Linear35" x1="0" y1="0" x2="1" y2="0" gradientUnits="userSpaceOnUse" gradientTransform="matrix(404.361,51.5199,-51.5199,404.361,70.9492,-612.132)"><stop offset="0" style="stop-color:rgb(39,15,66);stop-opacity:1"/><stop offset="1" style="stop-color:rgb(255,181,24);stop-opacity:1"/></linearGradient>
        <linearGradient id="_Linear36" x1="0" y1="0" x2="1" y2="0" gradientUnits="userSpaceOnUse" gradientTransform="matrix(404.361,51.5199,-51.5199,404.361,33.0891,-460.691)"><stop offset="0" style="stop-color:rgb(39,15,66);stop-opacity:1"/><stop offset="1" style="stop-color:rgb(255,181,24);stop-opacity:1"/></linearGradient>
        <linearGradient id="_Linear37" x1="0" y1="0" x2="1" y2="0" gradientUnits="userSpaceOnUse" gradientTransform="matrix(404.361,51.5199,-51.5199,404.361,33.0891,-498.551)"><stop offset="0" style="stop-color:rgb(39,15,66);stop-opacity:1"/><stop offset="1" style="stop-color:rgb(255,181,24);stop-opacity:1"/></linearGradient>
        <linearGradient id="_Linear38" x1="0" y1="0" x2="1" y2="0" gradientUnits="userSpaceOnUse" gradientTransform="matrix(404.361,51.5199,-51.5199,404.361,33.0891,-536.411)"><stop offset="0" style="stop-color:rgb(39,15,66);stop-opacity:1"/><stop offset="1" style="stop-color:rgb(255,181,24);stop-opacity:1"/></linearGradient>
        <linearGradient id="_Linear39" x1="0" y1="0" x2="1" y2="0" gradientUnits="userSpaceOnUse" gradientTransform="matrix(404.361,51.5199,-51.5199,404.361,33.0891,-574.271)"><stop offset="0" style="stop-color:rgb(39,15,66);stop-opacity:1"/><stop offset="1" style="stop-color:rgb(255,181,24);stop-opacity:1"/></linearGradient>
        <linearGradient id="_Linear40" x1="0" y1="0" x2="1" y2="0" gradientUnits="userSpaceOnUse" gradientTransform="matrix(404.361,51.5199,-51.5199,404.361,33.0891,-612.132)"><stop offset="0" style="stop-color:rgb(39,15,66);stop-opacity:1"/><stop offset="1" style="stop-color:rgb(255,181,24);stop-opacity:1"/></linearGradient>
        <linearGradient id="_Linear41" x1="0" y1="0" x2="1" y2="0" gradientUnits="userSpaceOnUse" gradientTransform="matrix(404.361,51.5199,-51.5199,404.361,-4.77103,-460.691)"><stop offset="0" style="stop-color:rgb(39,15,66);stop-opacity:1"/><stop offset="1" style="stop-color:rgb(255,181,24);stop-opacity:1"/></linearGradient>
        <linearGradient id="_Linear42" x1="0" y1="0" x2="1" y2="0" gradientUnits="userSpaceOnUse" gradientTransform="matrix(404.361,51.5199,-51.5199,404.361,-4.77103,-498.551)"><stop offset="0" style="stop-color:rgb(39,15,66);stop-opacity:1"/><stop offset="1" style="stop-color:rgb(255,181,24);stop-opacity:1"/></linearGradient>
        <linearGradient id="_Linear43" x1="0" y1="0" x2="1" y2="0" gradientUnits="userSpaceOnUse" gradientTransform="matrix(404.361,51.5199,-51.5199,404.361,-4.77103,-536.411)"><stop offset="0" style="stop-color:rgb(39,15,66);stop-opacity:1"/><stop offset="1" style="stop-color:rgb(255,181,24);stop-opacity:1"/></linearGradient>
        <linearGradient id="_Linear44" x1="0" y1="0" x2="1" y2="0" gradientUnits="userSpaceOnUse" gradientTransform="matrix(404.361,51.5199,-51.5199,404.361,-4.77103,-574.271)"><stop offset="0" style="stop-color:rgb(39,15,66);stop-opacity:1"/><stop offset="1" style="stop-color:rgb(255,181,24);stop-opacity:1"/></linearGradient>
        <linearGradient id="_Linear45" x1="0" y1="0" x2="1" y2="0" gradientUnits="userSpaceOnUse" gradientTransform="matrix(404.361,51.5199,-51.5199,404.361,-4.77103,-612.132)"><stop offset="0" style="stop-color:rgb(39,15,66);stop-opacity:1"/><stop offset="1" style="stop-color:rgb(255,181,24);stop-opacity:1"/></linearGradient>
        <linearGradient id="_Linear46" x1="0" y1="0" x2="1" y2="0" gradientUnits="userSpaceOnUse" gradientTransform="matrix(404.361,51.5199,-51.5199,404.361,-42.6312,-460.691)"><stop offset="0" style="stop-color:rgb(39,15,66);stop-opacity:1"/><stop offset="1" style="stop-color:rgb(255,181,24);stop-opacity:1"/></linearGradient>
        <linearGradient id="_Linear47" x1="0" y1="0" x2="1" y2="0" gradientUnits="userSpaceOnUse" gradientTransform="matrix(404.361,51.5199,-51.5199,404.361,-42.6312,-498.551)"><stop offset="0" style="stop-color:rgb(39,15,66);stop-opacity:1"/><stop offset="1" style="stop-color:rgb(255,181,24);stop-opacity:1"/></linearGradient>
        <linearGradient id="_Linear48" x1="0" y1="0" x2="1" y2="0" gradientUnits="userSpaceOnUse" gradientTransform="matrix(404.361,51.5199,-51.5199,404.361,-42.6312,-536.411)"><stop offset="0" style="stop-color:rgb(39,15,66);stop-opacity:1"/><stop offset="1" style="stop-color:rgb(255,181,24);stop-opacity:1"/></linearGradient>
        <linearGradient id="_Linear49" x1="0" y1="0" x2="1" y2="0" gradientUnits="userSpaceOnUse" gradientTransform="matrix(404.361,51.5199,-51.5199,404.361,-42.6312,-574.271)"><stop offset="0" style="stop-color:rgb(39,15,66);stop-opacity:1"/><stop offset="1" style="stop-color:rgb(255,181,24);stop-opacity:1"/></linearGradient>
        <linearGradient id="_Linear50" x1="0" y1="0" x2="1" y2="0" gradientUnits="userSpaceOnUse" gradientTransform="matrix(404.361,51.5199,-51.5199,404.361,-42.6312,-612.132)"><stop offset="0" style="stop-color:rgb(39,15,66);stop-opacity:1"/><stop offset="1" style="stop-color:rgb(255,181,24);stop-opacity:1"/></linearGradient>
        <linearGradient id="_Linear51" x1="0" y1="0" x2="1" y2="0" gradientUnits="userSpaceOnUse" gradientTransform="matrix(404.361,51.5199,-51.5199,404.361,-80.4913,-460.691)"><stop offset="0" style="stop-color:rgb(39,15,66);stop-opacity:1"/><stop offset="1" style="stop-color:rgb(255,181,24);stop-opacity:1"/></linearGradient>
        <linearGradient id="_Linear52" x1="0" y1="0" x2="1" y2="0" gradientUnits="userSpaceOnUse" gradientTransform="matrix(404.361,51.5199,-51.5199,404.361,-80.4913,-498.551)"><stop offset="0" style="stop-color:rgb(39,15,66);stop-opacity:1"/><stop offset="1" style="stop-color:rgb(255,181,24);stop-opacity:1"/></linearGradient>
        <linearGradient id="_Linear53" x1="0" y1="0" x2="1" y2="0" gradientUnits="userSpaceOnUse" gradientTransform="matrix(404.361,51.5199,-51.5199,404.361,-80.4913,-536.411)"><stop offset="0" style="stop-color:rgb(39,15,66);stop-opacity:1"/><stop offset="1" style="stop-color:rgb(255,181,24);stop-opacity:1"/></linearGradient>
        <linearGradient id="_Linear54" x1="0" y1="0" x2="1" y2="0" gradientUnits="userSpaceOnUse" gradientTransform="matrix(404.361,51.5199,-51.5199,404.361,-80.4913,-574.271)"><stop offset="0" style="stop-color:rgb(39,15,66);stop-opacity:1"/><stop offset="1" style="stop-color:rgb(255,181,24);stop-opacity:1"/></linearGradient>
        <linearGradient id="_Linear55" x1="0" y1="0" x2="1" y2="0" gradientUnits="userSpaceOnUse" gradientTransform="matrix(404.361,51.5199,-51.5199,404.361,-80.4913,-612.132)"><stop offset="0" style="stop-color:rgb(39,15,66);stop-opacity:1"/><stop offset="1" style="stop-color:rgb(255,181,24);stop-opacity:1"/></linearGradient>
        <linearGradient id="_Linear56" x1="0" y1="0" x2="1" y2="0" gradientUnits="userSpaceOnUse" gradientTransform="matrix(404.361,51.5199,-51.5199,404.361,-118.351,-460.691)"><stop offset="0" style="stop-color:rgb(39,15,66);stop-opacity:1"/><stop offset="1" style="stop-color:rgb(255,181,24);stop-opacity:1"/></linearGradient>
        <linearGradient id="_Linear57" x1="0" y1="0" x2="1" y2="0" gradientUnits="userSpaceOnUse" gradientTransform="matrix(404.361,51.5199,-51.5199,404.361,-118.351,-498.551)"><stop offset="0" style="stop-color:rgb(39,15,66);stop-opacity:1"/><stop offset="1" style="stop-color:rgb(255,181,24);stop-opacity:1"/></linearGradient>
        <linearGradient id="_Linear58" x1="0" y1="0" x2="1" y2="0" gradientUnits="userSpaceOnUse" gradientTransform="matrix(404.361,51.5199,-51.5199,404.361,-118.351,-536.411)"><stop offset="0" style="stop-color:rgb(39,15,66);stop-opacity:1"/><stop offset="1" style="stop-color:rgb(255,181,24);stop-opacity:1"/></linearGradient>
        <linearGradient id="_Linear59" x1="0" y1="0" x2="1" y2="0" gradientUnits="userSpaceOnUse" gradientTransform="matrix(404.361,51.5199,-51.5199,404.361,-118.351,-574.271)"><stop offset="0" style="stop-color:rgb(39,15,66);stop-opacity:1"/><stop offset="1" style="stop-color:rgb(255,181,24);stop-opacity:1"/></linearGradient>
        <linearGradient id="_Linear60" x1="0" y1="0" x2="1" y2="0" gradientUnits="userSpaceOnUse" gradientTransform="matrix(404.361,51.5199,-51.5199,404.361,-118.351,-612.132)"><stop offset="0" style="stop-color:rgb(39,15,66);stop-opacity:1"/><stop offset="1" style="stop-color:rgb(255,181,24);stop-opacity:1"/></linearGradient>
    </defs>
</svg>
