<?xml version="1.0" encoding="UTF-8" standalone="no"?>
<!DOCTYPE svg PUBLIC "-//W3C//DTD SVG 1.1//EN" "http://www.w3.org/Graphics/SVG/1.1/DTD/svg11.dtd">
<svg width="100%" height="100%" viewBox="0 0 226 107" version="1.1" xmlns="http://www.w3.org/2000/svg" xmlns:xlink="http://www.w3.org/1999/xlink" xml:space="preserve" xmlns:serif="http://www.serif.com/" style="fill-rule:evenodd;clip-rule:evenodd;stroke-linejoin:round;stroke-miterlimit:2;">
    <g transform="matrix(1,0,0,1,-1039.71,-472.469)">
        <g transform="matrix(0.813033,0,0,0.813033,834.141,291.513)">
            <g transform="matrix(43.4546,-71.0665,-71.0665,-43.4546,360.324,358.962)">
                <path d="M0.642,1.648C0.452,1.691 0.243,1.661 0.062,1.55C-0.119,1.44 -0.241,1.268 -0.29,1.078C-0.339,0.892 -0.316,0.686 -0.21,0.509L-0.206,0.501C-0.096,0.322 0.079,0.206 0.269,0.164C0.46,0.121 0.669,0.151 0.85,0.262L1.033,0.374C1.137,0.438 1.272,0.405 1.335,0.303C1.397,0.2 1.365,0.065 1.261,0.001L0.871,-0.237C0.607,-0.398 0.522,-0.743 0.684,-1.007L0.71,-1.05L1,-0.872L0.974,-0.829C0.912,-0.727 0.945,-0.594 1.05,-0.53L1.44,-0.292C1.544,-0.228 1.679,-0.261 1.742,-0.363C1.804,-0.465 1.772,-0.6 1.667,-0.664L1.278,-0.903C1.014,-1.064 0.929,-1.408 1.091,-1.672L1.117,-1.715L1.407,-1.538L1.381,-1.495C1.319,-1.392 1.351,-1.257 1.456,-1.193L1.845,-0.955C2.109,-0.793 2.194,-0.449 2.032,-0.185C1.953,-0.056 1.829,0.03 1.693,0.064C1.724,0.202 1.705,0.351 1.625,0.48C1.476,0.724 1.168,0.816 0.915,0.701L0.672,0.553C0.567,0.489 0.45,0.472 0.343,0.496C0.236,0.52 0.144,0.583 0.084,0.679C0.025,0.776 0.012,0.887 0.04,0.993C0.067,1.099 0.135,1.196 0.24,1.26C0.344,1.324 0.462,1.34 0.568,1.316C0.675,1.292 0.768,1.23 0.827,1.133C0.868,1.066 0.886,0.994 0.886,0.92L0.885,0.851L0.951,0.871C1.024,0.893 1.099,0.904 1.174,0.902L1.228,0.901L1.225,0.955C1.221,1.076 1.186,1.199 1.119,1.309C1.118,1.31 1.118,1.31 1.118,1.311C1.008,1.49 0.833,1.606 0.642,1.648Z" style="fill:url(#_Linear1);fill-rule:nonzero;"/>
            </g>
        </g>
        <g transform="matrix(0.813033,0,0,0.813033,834.141,291.513)">
            <g transform="matrix(4.16667,0,0,4.16667,336.379,242.359)">
                <path d="M0,21.515L-0.176,21.515L-0.179,21.514C-3.819,21.474 -7.162,20.095 -9.733,17.867C-9.747,17.855 -9.762,17.843 -9.775,17.831C-10.127,17.566 -10.462,17.274 -10.775,16.951C-11.095,16.619 -11.388,16.259 -11.654,15.875C-11.663,15.864 -11.672,15.851 -11.682,15.84C-12.658,14.417 -13.24,12.674 -13.242,10.76C-13.24,8.311 -12.29,6.14 -10.772,4.565C-9.246,2.993 -7.221,2.063 -4.954,2.058C-3.392,2.061 -1.957,2.503 -0.706,3.289L0.465,4.028L0.806,2.688C1.185,1.204 1.8,-0.192 2.602,-1.453L3.175,-2.353L2.243,-2.873C0.117,-4.059 -2.331,-4.743 -4.92,-4.748C-4.933,-4.749 -4.946,-4.749 -4.96,-4.749C-7.721,-4.749 -10.313,-3.976 -12.537,-2.648C-12.535,-2.65 -12.534,-2.652 -12.532,-2.655C-12.591,-2.62 -12.649,-2.582 -12.707,-2.547C-12.771,-2.506 -12.836,-2.467 -12.899,-2.427C-13.072,-2.317 -13.244,-2.204 -13.413,-2.087C-13.448,-2.062 -13.483,-2.036 -13.519,-2.011C-13.676,-1.9 -13.831,-1.786 -13.984,-1.668C-14.012,-1.647 -14.04,-1.626 -14.067,-1.605C-14.635,-1.163 -15.173,-0.684 -15.67,-0.167C-18.386,2.641 -20.049,6.519 -20.049,10.757L-20.049,10.759C-20.048,14.996 -18.385,18.871 -15.669,21.681C-12.998,24.455 -9.25,26.217 -5.123,26.263L-5.121,26.264L-4.944,26.264C-0.755,26.263 3.05,24.49 5.759,21.68C6.429,20.987 7.034,20.228 7.567,19.415C5.346,20.743 2.757,21.514 0,21.515" style="fill:rgb(230,231,232);fill-rule:nonzero;"/>
            </g>
        </g>
        <g transform="matrix(0.813033,0,0,0.813033,834.141,291.513)">
            <g transform="matrix(101.3,0,0,-101.3,429.445,288.343)">
                <path d="M0,0.519C0.086,0.436 0.139,0.32 0.14,0.191C0.142,0.29 0.222,0.369 0.32,0.369C0.418,0.369 0.499,0.289 0.499,0.188L0.499,-0.188C0.499,-0.442 0.704,-0.649 0.959,-0.649L1,-0.649L1,-0.369L0.959,-0.369C0.86,-0.369 0.779,-0.289 0.779,-0.188L0.779,0.188C0.779,0.442 0.574,0.649 0.319,0.649C0.195,0.649 0.083,0.599 0,0.519Z" style="fill:url(#_Linear2);fill-rule:nonzero;"/>
            </g>
        </g>
    </g>
    <defs>
        <linearGradient id="_Linear1" x1="0" y1="0" x2="1" y2="0" gradientUnits="userSpaceOnUse" gradientTransform="matrix(0.882769,-0.0910845,-0.0910845,-0.882769,0.111373,-0.0706959)"><stop offset="0" style="stop-color:rgb(81,102,113);stop-opacity:1"/><stop offset="1" style="stop-color:white;stop-opacity:1"/></linearGradient>
        <linearGradient id="_Linear2" x1="0" y1="0" x2="1" y2="0" gradientUnits="userSpaceOnUse" gradientTransform="matrix(1,0,0,-1,0,-2.86361e-05)"><stop offset="0" style="stop-color:rgb(80,101,113);stop-opacity:1"/><stop offset="1" style="stop-color:white;stop-opacity:1"/></linearGradient>
    </defs>
</svg>
