<?xml version="1.0" encoding="UTF-8" standalone="no"?>
<!DOCTYPE svg PUBLIC "-//W3C//DTD SVG 1.1//EN" "http://www.w3.org/Graphics/SVG/1.1/DTD/svg11.dtd">
<svg width="100%" height="100%" viewBox="0 0 30 30" version="1.1" xmlns="http://www.w3.org/2000/svg" xmlns:xlink="http://www.w3.org/1999/xlink" xml:space="preserve" xmlns:serif="http://www.serif.com/" style="fill-rule:evenodd;clip-rule:evenodd;stroke-linejoin:round;stroke-miterlimit:2;">
    <g transform="matrix(1,0,0,1,-1369.9,-613.962)">
        <g transform="matrix(1,0,0,1,806.862,282.861)">
            <g transform="matrix(0.177158,0,0,0.177158,563.04,331.039)">
                <path d="M83.829,0.349C37.532,0.349 0,37.881 0,84.178C0,125.701 30.222,160.089 69.848,166.748L69.848,101.667L49.626,101.667L49.626,78.247L69.848,78.247L69.848,60.978C69.848,40.941 82.086,30.022 99.963,30.022C108.525,30.022 115.883,30.66 118.019,30.941L118.019,51.885L105.62,51.891C95.9,51.891 94.026,56.509 94.026,63.288L94.026,78.235L117.219,78.235L114.194,101.655L94.026,101.655L94.026,167.308C135.502,162.26 167.657,126.996 167.657,84.154C167.657,37.881 130.125,0.349 83.829,0.349Z" style="fill:rgb(255,181,24);fill-rule:nonzero;"/>
            </g>
        </g>
    </g>
</svg>
